<?xml version="1.0" encoding="iso-8859-1"?>
<!-- Uploaded to: SVG Repo, www.svgrepo.com, Generator: SVG Repo Mixer Tools -->
<svg fill="#000000" height="" width="" version="1.1" id="Capa_1" xmlns="http://www.w3.org/2000/svg" xmlns:xlink="http://www.w3.org/1999/xlink" 
	 viewBox="0 0 512.001 512.001" xml:space="preserve">
<g>
	<g>
		<path d="M209.646,448.561h-42.559c-4.216,0-7.632,3.417-7.632,7.632c0,4.215,3.417,7.632,7.632,7.632h42.559
			c4.216,0,7.632-3.417,7.632-7.632C217.278,451.978,213.862,448.561,209.646,448.561z"/>
	</g>
</g>
<g>
	<g>
		<path d="M209.646,470.402h-42.559c-4.216,0-7.632,3.417-7.632,7.632c0,4.215,3.416,7.632,7.632,7.632h42.559
			c4.216,0,7.632-3.417,7.632-7.632C217.278,473.819,213.862,470.402,209.646,470.402z"/>
	</g>
</g>
<g>
	<g>
		<path d="M370.788,74.283c-24.616,0-44.644,20.027-44.644,44.644s20.027,44.644,44.644,44.644
			c24.616,0,44.644-20.027,44.644-44.644C415.433,94.31,395.405,74.283,370.788,74.283z M370.788,148.309
			c-16.201,0-29.381-13.18-29.381-29.381s13.18-29.381,29.381-29.381c16.201,0,29.381,13.18,29.381,29.381
			C400.17,135.129,386.99,148.309,370.788,148.309z"/>
	</g>
</g>
<g>
	<g>
		<path d="M123.666,74.283c-24.616,0-44.644,20.027-44.644,44.644s20.028,44.644,44.644,44.644
			c24.616,0,44.644-20.027,44.644-44.644C168.311,94.31,148.283,74.283,123.666,74.283z M123.666,148.309
			c-16.201,0-29.381-13.18-29.381-29.381s13.18-29.381,29.381-29.381s29.381,13.18,29.381,29.381
			C153.048,135.129,139.868,148.309,123.666,148.309z"/>
	</g>
</g>
<g>
	<g>
		<path d="M503.49,256.148c-2.335-1.37-5.224-1.398-7.587-0.076l-40.716,22.787c-2.081-10.953-11.72-19.262-23.27-19.262
			c-3.026,0-5.918,0.576-8.581,1.615c-0.704-3.486-3.784-6.111-7.479-6.111h-74.451v-17.352h24.474
			c1.76,0.072,3.368,0.108,4.908,0.108c65.576,0,118.928-53.35,118.928-118.928S436.365,0,370.788,0
			c-18.997,0-37.154,4.347-53.965,12.922c-3.755,1.915-5.246,6.511-3.331,10.266c1.916,3.755,6.513,5.245,10.266,3.33
			c14.643-7.468,30.466-11.255,47.031-11.255c57.161,0,103.665,46.503,103.665,103.665c0,57.161-46.503,103.665-103.665,103.665
			c-1.371,0-2.82-0.033-4.427-0.101c-0.107-0.004-0.215-0.007-0.322-0.007h-32.264H160.679h-32.264
			c-0.107,0-0.215,0.002-0.322,0.007c-1.609,0.068-3.058,0.101-4.428,0.101c-57.161,0-103.665-46.503-103.665-103.665
			c0-27.334,10.546-53.127,29.695-72.627c2.953-3.008,2.908-7.839-0.099-10.792c-3.005-2.951-7.837-2.909-10.792,0.099
			c-21.968,22.37-34.066,51.961-34.066,83.32c0,65.577,53.351,118.928,118.928,118.928c1.541,0,3.147-0.036,4.909-0.108h24.474
			v18.161l-74.566,1.119c-4.17,0.063-7.518,3.461-7.518,7.63v15.677c0,4.215,3.416,7.632,7.632,7.632s7.632-3.417,7.632-7.632v-8.16
			l120.784-1.813h126.764h74.451v12.926v93.79v15.728l-64.459,29.737h-182.58h-60.267c-8.102,0-14.692-6.591-14.692-14.691v-79.175
			c0-4.215-3.416-7.632-7.632-7.632s-7.632,3.417-7.632,7.632v79.175c0,16.517,13.438,29.954,29.955,29.954h25.284
			c-7.958,8.544-12.841,19.99-12.841,32.561v34.002c0,4.215,3.416,7.632,7.632,7.632h224.448c4.216,0,7.632-3.417,7.632-7.632
			v-69.312l65.98-30.438c2.251-1.038,3.811-3.092,4.276-5.467c2.664,1.04,5.559,1.618,8.587,1.618
			c11.55,0,21.189-8.309,23.27-19.262l40.716,22.787c1.159,0.648,2.443,0.972,3.727,0.972c1.335,0,2.669-0.35,3.86-1.048
			c2.337-1.37,3.772-3.876,3.772-6.583V262.731C507.262,260.023,505.828,257.517,503.49,256.148z M326.143,255.099h-119.19h-38.642
			v-17.352h157.832V255.099z M337.811,496.737H128.627v-26.37c0-17.954,14.607-32.561,32.561-32.561h176.624V496.737z
			 M440.345,291.639v77.089v8.351c0,4.647-3.781,8.428-8.428,8.428c-4.647,0-8.428-3.781-8.428-8.428v-93.79
			c0-4.647,3.781-8.428,8.428-8.428c4.647,0,8.428,3.781,8.428,8.428V291.639z M491.999,384.62l-36.39-20.367v-68.139l36.39-20.367
			V384.62z"/>
	</g>
</g>
<g>
	<g>
		<path d="M235.985,295.028H131.112c-4.216,0-7.632,3.417-7.632,7.632v17.229c0,4.215,3.416,7.632,7.632,7.632
			s7.632-3.417,7.632-7.632v-9.597h89.61v69.599h-89.61v-16.68c0-4.215-3.417-7.632-7.632-7.632c-4.216,0-7.632,3.417-7.632,7.632
			v24.312c0,4.215,3.416,7.632,7.632,7.632h104.873c4.216,0,7.632-3.417,7.632-7.632V302.66
			C243.617,298.445,240.201,295.028,235.985,295.028z"/>
	</g>
</g>
<g>
	<g>
		<path d="M274.206,318.419c-12.208,0-22.141,9.932-22.141,22.141s9.932,22.141,22.141,22.141c12.209,0,22.142-9.932,22.142-22.141
			C296.347,328.351,286.414,318.419,274.206,318.419z M274.206,347.437c-3.792,0.001-6.878-3.085-6.878-6.878
			c0-3.793,3.085-6.878,6.878-6.878c3.793,0,6.879,3.085,6.879,6.878C281.085,344.352,277.999,347.437,274.206,347.437z"/>
	</g>
</g>
<g>
	<g>
		<path d="M323.199,318.419c-12.208,0-22.141,9.932-22.141,22.141s9.933,22.14,22.141,22.14s22.142-9.932,22.142-22.141
			C345.341,328.351,335.408,318.419,323.199,318.419z M323.199,347.437c-3.791,0.001-6.878-3.085-6.878-6.878
			c0-3.793,3.085-6.878,6.878-6.878c3.793,0,6.879,3.085,6.879,6.878C330.078,344.352,326.993,347.437,323.199,347.437z"/>
	</g>
</g>
<g>
	<g>
		<path d="M372.194,318.419c-12.208,0-22.142,9.932-22.142,22.141s9.933,22.141,22.142,22.141s22.141-9.932,22.141-22.141
			C394.334,328.351,384.402,318.419,372.194,318.419z M372.195,347.437c-3.793,0.001-6.879-3.085-6.879-6.878
			c0-3.793,3.085-6.878,6.879-6.878c3.792,0,6.878,3.085,6.878,6.878C379.073,344.352,375.987,347.437,372.195,347.437z"/>
	</g>
</g>
<g>
	<g>
		<path d="M288.781,43.299c-3.286-2.642-8.089-2.119-10.73,1.166c-16.89,21.01-26.191,47.455-26.191,74.463
			c0,16.642,3.489,33.065,10.167,48.156h-29.6c6.678-15.091,10.167-31.514,10.167-48.156C242.594,53.35,189.243,0,123.665,0
			c-16.756,0-32.961,3.418-48.164,10.159c-3.853,1.708-5.591,6.216-3.883,10.07s6.214,5.592,10.071,3.883
			c13.241-5.871,27.365-8.849,41.976-8.849c57.161,0,103.666,46.503,103.666,103.665c0,18.273-4.822,36.24-13.944,51.956
			c-1.371,2.361-1.376,5.274-0.014,7.64c1.362,2.366,3.884,3.823,6.614,3.823h54.48c2.73,0,5.252-1.458,6.613-3.823
			c1.362-2.366,1.357-5.279-0.013-7.64c-9.122-15.717-13.944-33.684-13.944-51.956c0-23.884,7.893-46.325,22.825-64.899
			C292.587,50.742,292.066,45.94,288.781,43.299z"/>
	</g>
</g>
</svg>